Coordinates
datacolumns 6
datarows 164
range 0 1.63
inDegrees=yes
Units are S.I. units (second, meters, Newtons, ...)
If the header above contains a line with 'inDegrees', this indicates whether rotational values are in degrees (yes) or radians (no).
endheader
time	foot_tx	hip_flexion_r	knee_angle_r	ankle_angle_r	lumbar
0	0.21332389	65.8065499	-80.998625	-0.1557792	-32.34708957
0.01	0.21329637	65.82906484	-80.93912255	-0.19677206	-32.75691792
0.02	0.21327035	65.85795639	-80.87677699	-0.24004936	-33.18945463
0.03	0.21325004	65.90717139	-80.81187682	-0.28792364	-33.6329393
0.04	0.21322902	65.97635942	-80.74487743	-0.34011035	-34.08987886
0.05	0.21320522	66.0646211	-80.67637913	-0.39585127	-34.56200048
0.06	0.21318026	66.16907695	-80.60687901	-0.45388737	-35.0518196
0.07	0.21314917	66.27558149	-80.53666705	-0.51124007	-35.57371104
0.08	0.2131121	66.37570205	-80.4659451	-0.56589674	-36.13622035
0.09	0.2130775	66.47283514	-80.3949443	-0.61785969	-36.73571547
0.1	0.21304061	66.56459023	-80.324044	-0.66613108	-37.37659892
0.11	0.21300669	66.65578772	-80.25353246	-0.71129137	-38.05522632
0.12	0.21297403	66.75230707	-80.18290849	-0.75437681	-38.7681466
0.13	0.21293996	66.85941297	-80.11156347	-0.79648572	-39.51267814
0.14	0.2129112	66.98825866	-80.03778944	-0.84034076	-40.27895437
0.15	0.21288431	67.1453239	-79.9612727	-0.88655596	-41.06163711
0.16	0.21284188	67.33561874	-79.88510946	-0.93265213	-41.85596253
0.17	0.21279551	67.56880556	-79.80605415	-0.98158603	-42.65188722
0.18	0.2127478	67.84818846	-79.72315939	-1.03355907	-43.44455954
0.19	0.21269361	68.17772083	-79.63713648	-1.08710498	-44.22692498
0.2	0.21263309	68.55631375	-79.5471449	-1.14092063	-44.9959006
0.21	0.21256945	68.98604587	-79.45231064	-1.19396553	-45.74392178
0.22	0.21249225	69.47383217	-79.35784822	-1.24143819	-46.45588971
0.23	0.21241162	70.03200387	-79.26263827	-1.28383946	-47.11264073
0.24	0.2123282	70.6621206	-79.17302356	-1.31573432	-47.70104012
0.25	0.21223779	71.3970254	-79.09131194	-1.33689615	-48.17879768
0.26	0.21215024	72.21489499	-79.0192039	-1.3423668	-48.55771265
0.27	0.21207113	73.12839344	-78.9578271	-1.33089735	-48.81475969
0.28	0.21198777	74.12666433	-78.91512986	-1.29415267	-48.95104712
0.29	0.21192155	75.21187024	-78.88818372	-1.23343165	-48.95759861
0.3	0.21187946	76.37953287	-78.88072395	-1.14540698	-48.83306213
0.31	0.21185148	77.61679907	-78.8983291	-1.02469299	-48.58818266
0.32	0.21184417	78.91389725	-78.94018846	-0.87112223	-48.23277541
0.33	0.21185863	80.26081492	-79.00714769	-0.68369365	-47.77788283
0.34	0.21189359	81.64734175	-79.09569363	-0.46359338	-47.23513922
0.35	0.21194105	83.05940253	-79.20118668	-0.21175953	-46.61931133
0.36	0.21199713	84.47823846	-79.31659856	0.06946537	-45.95040612
0.37	0.21205969	85.88574785	-79.43327079	0.37675041	-45.24711367
0.38	0.21212477	87.2628496	-79.5444219	0.70766553	-44.5292178
0.39	0.21219297	88.58919599	-79.64303498	1.05989671	-43.81712861
0.4	0.21226656	89.84764142	-79.72485557	1.43156881	-43.12801225
0.41	0.21234858	91.02681883	-79.78838722	1.82123979	-42.47244505
0.42	0.21244645	92.11698226	-79.83376589	2.22724866	-41.85916454
0.43	0.21256316	93.11414734	-79.86428222	2.64859227	-41.29012084
0.44	0.21270123	94.01691053	-79.88450217	3.08384505	-40.76378523
0.45	0.21285509	94.82072353	-79.90071135	3.53248673	-40.28142462
0.46	0.21302107	95.51632405	-79.91848557	3.99358326	-39.84883768
0.47	0.21318986	96.08860518	-79.94316991	4.4666668	-39.4787051
0.48	0.21336439	96.52126842	-79.97802728	4.95056443	-39.18369202
0.49	0.21355025	96.80053267	-80.02371181	5.44292663	-38.97483954
0.5	0.21376101	96.91918777	-80.0772637	5.93973875	-38.85667878
0.51	0.21398694	96.880109	-80.13614017	6.43967158	-38.82028304
0.52	0.21423696	96.69813729	-80.19318203	6.93807663	-38.84523968
0.53	0.2145023	96.39148828	-80.23749442	7.43049005	-38.91056787
0.54	0.21477772	95.99018007	-80.26068848	7.91336458	-38.979552
0.55	0.21505687	95.50758304	-80.25108405	8.38311939	-39.03947691
0.56	0.21534051	94.96134515	-80.19868663	8.83582639	-39.07232627
0.57	0.21562736	94.3594193	-80.0946656	9.26863828	-39.07376662
0.58	0.21592092	93.7097887	-79.9313963	9.67781596	-39.03974267
0.59	0.21621955	93.0134421	-79.70330845	10.06088736	-38.97521225
0.6	0.21652295	92.27697479	-79.40632565	10.41462515	-38.87880519
0.61	0.21682023	91.49959482	-79.03835276	10.73775858	-38.75727499
0.62	0.21711014	90.68847998	-78.59848234	11.02788982	-38.60817934
0.63	0.2173833	89.84406366	-78.08698023	11.28434543	-38.43621124
0.64	0.21763666	88.97008443	-77.50535132	11.50638356	-38.24172011
0.65	0.21786884	88.06463907	-76.85719858	11.69488321	-38.03082623
0.66	0.21808052	87.13577938	-76.14539595	11.84927826	-37.79854187
0.67	0.21827528	86.18109219	-75.37580123	11.97166872	-37.55049502
0.68	0.21845709	85.20239193	-74.55308097	12.06321994	-37.28747004
0.69	0.21862984	84.20203222	-73.68157344	12.12507133	-37.0089202
0.7	0.21879656	83.18096633	-72.76691042	12.15941284	-36.71574967
0.71	0.21896227	82.14361105	-71.81268633	12.16718739	-36.40383277
0.72	0.2191245	81.0885671	-70.82425091	12.15131422	-36.07613723
0.73	0.21928512	80.01843053	-69.80542441	12.11358625	-35.73160249
0.74	0.21944527	78.93403273	-68.75954744	12.05575734	-35.37144601
0.75	0.21960555	77.83213734	-67.68961414	11.98009633	-35.00131812
0.76	0.21976318	76.70308293	-66.59810394	11.88951299	-34.63407602
0.77	0.21991849	75.53839534	-65.48531475	11.78520601	-34.28084349
0.78	0.22006605	74.3259137	-64.3529924	11.66972381	-33.95706645
0.79	0.22020553	73.07038889	-63.20320793	11.54350719	-33.65922727
0.8	0.22033591	71.77869043	-62.03814611	11.40669793	-33.38128667
0.81	0.22045652	70.45727349	-60.86046282	11.25995313	-33.11775627
0.82	0.22056965	69.11606032	-59.67224977	11.10316731	-32.85816592
0.83	0.22067703	67.75530697	-58.47608782	10.93767851	-32.60298348
0.84	0.22078253	66.37674791	-57.27379302	10.7641919	-32.35053698
0.85	0.22089139	64.98731331	-56.06571398	10.58232485	-32.09350053
0.86	0.22100648	63.58540649	-54.85312541	10.39343578	-31.83452923
0.87	0.22113077	62.1710189	-53.63494958	10.19739445	-31.57442684
0.88	0.22126683	60.74821192	-52.40968829	9.99342281	-31.30936894
0.89	0.22141684	59.31298992	-51.17547283	9.78115162	-31.0443443
0.9	0.22157627	57.87301846	-49.92992389	9.55915895	-30.77066918
0.91	0.22174437	56.41648722	-48.67284981	9.32862337	-30.50122246
0.92	0.22190696	54.95449111	-47.40262249	9.08866917	-30.22320896
0.93	0.22205512	53.47520215	-46.12064055	8.84165178	-29.94897791
0.94	0.22218123	51.98456515	-44.8274919	8.5878211	-29.67164143
0.95	0.22228128	50.48642899	-43.52469778	8.3279849	-29.3875918
0.96	0.22235769	48.98448399	-42.21288061	8.06209729	-29.09292358
0.97	0.22241662	47.48065895	-40.89295569	7.79026716	-28.78602478
0.98	0.22246602	45.97940063	-39.56597539	7.51233416	-28.46293037
0.99	0.22251296	44.4870873	-38.23313231	7.22790251	-28.11859332
1	0.22255967	43.00772474	-36.8963381	6.93718306	-27.752158
1.01	0.22260675	41.5529997	-35.55865284	6.64012119	-27.35553816
1.02	0.2226484	40.13231632	-34.2246536	6.33810813	-26.92388317
1.03	0.22267824	38.75638592	-32.89960618	6.03311671	-26.45022733
1.04	0.22268851	37.42964916	-31.58834673	5.72789885	-25.93329125
1.05	0.22267391	36.15237198	-30.29458924	5.42503382	-25.37521509
1.06	0.22263228	34.91837356	-29.02090562	5.1269316	-24.78467096
1.07	0.22256541	33.72725019	-27.770363	4.83562685	-24.1627903
1.08	0.22247706	32.57023883	-26.54420905	4.55252708	-23.52108378
1.09	0.22236172	31.43961625	-25.3477921	4.28198065	-22.86923688
1.1	0.22222616	30.34513881	-24.1832929	4.02354722	-22.20021616
1.11	0.22206895	29.28501402	-23.0549177	3.77940619	-21.51999169
1.12	0.22188616	28.26159379	-21.96884493	3.55245664	-20.83093992
1.13	0.22169242	27.28256245	-20.9229752	3.33956454	-20.12683976
1.14	0.221479	26.34411074	-19.92450467	3.14524271	-19.41650127
1.15	0.22125703	25.4492325	-18.97153587	2.96754622	-18.69650499
1.16	0.22103093	24.59440735	-18.06504504	2.80747536	-17.9693763
1.17	0.22080616	23.77806505	-17.2046228	2.66399685	-17.24105441
1.18	0.22058915	22.99903575	-16.3893048	2.53633782	-16.51251235
1.19	0.22038462	22.2580789	-15.61838081	2.42352584	-15.78432498
1.2	0.22019659	21.58487579	-14.89354802	2.32375045	-15.02549422
1.21	0.22002253	20.88275366	-14.19919709	2.23618145	-14.33643296
1.22	0.21986603	20.25018361	-13.54672566	2.15924162	-13.61232564
1.23	0.21972682	19.63315816	-12.92622469	2.09184022	-12.90798299
1.24	0.21959374	19.03347194	-12.33921699	2.03576284	-12.2206729
1.25	0.21947802	18.45074873	-11.77971919	1.98737795	-11.54820596
1.26	0.21937282	17.88516118	-11.24873667	1.94786002	-10.89093879
1.27	0.21927582	17.3719227	-10.75196878	1.91779108	-10.21342647
1.28	0.2191959	16.83540767	-10.27039466	1.89190678	-9.59330054
1.29	0.21912455	16.35383922	-9.82244381	1.87444269	-8.95398665
1.3	0.21906867	15.84979272	-9.39248385	1.86222982	-8.37652142
1.31	0.21902819	15.41209921	-8.99818913	1.85826927	-7.76988339
1.32	0.21901031	14.94440326	-8.62103436	1.85974467	-7.23268314
1.33	0.21901191	14.53736573	-8.27728073	1.86905182	-6.67021494
1.34	0.21903771	14.09990678	-7.9491303	1.88371406	-6.17393508
1.35	0.21907855	13.71372274	-7.64880082	1.90469064	-5.65733084
1.36	0.21912869	13.29947583	-7.35720152	1.9282637	-5.19826005
1.37	0.21917822	12.89981943	-7.08107439	1.95531515	-4.75097073
1.38	0.21921783	12.51049773	-6.81630629	1.98442566	-4.31727716
1.39	0.21924067	12.12841976	-6.55984387	2.01446297	-3.89842864
1.4	0.21924253	11.75161363	-6.30957617	2.0445882	-3.49517412
1.41	0.21922162	11.3790697	-6.06443656	2.07434575	-3.10802865
1.42	0.21917862	11.01049026	-5.82438408	2.1036396	-2.73761834
1.43	0.21911551	10.61690174	-5.58614878	2.13239323	-2.41691029
1.44	0.21903679	10.26713191	-5.36087575	2.16184263	-2.07119729
1.45	0.21895036	9.88112045	-5.13887875	2.19098635	-1.79292258
1.46	0.21885013	9.51536739	-4.92729037	2.22085345	-1.51595951
1.47	0.21874808	9.15236807	-4.72699001	2.25165134	-1.26574851
1.48	0.21864202	8.7906574	-4.53592281	2.28262838	-1.04212818
1.49	0.21853953	8.43145671	-4.35576888	2.314004	-0.84588624
1.5	0.21844078	8.07368683	-4.18636343	2.34609147	-0.67675701
1.51	0.21835026	7.7218974	-4.02731841	2.37839682	-0.5279903
1.52	0.21827063	7.37661325	-3.8792608	2.411505	-0.39797496
1.53	0.21820568	7.04241517	-3.74325825	2.44589679	-0.28027278
1.54	0.21815915	6.72513752	-3.6203742	2.48195607	-0.16708769
1.55	0.21813631	6.42606146	-3.51224564	2.52048398	-0.05754599
1.56	0.21813853	6.15154276	-3.41997298	2.56189305	0.05651416
1.57	0.21816781	5.90242874	-3.34478958	2.60675281	0.17481922
1.58	0.21822513	5.68029834	-3.2872868	2.65527013	0.29860151
1.59	0.21831127	5.50332271	-3.24965016	2.70741602	0.44781827
1.6	0.21842221	5.33671689	-3.22680738	2.76289733	0.58330913
1.61	0.21855643	5.18625569	-3.22015651	2.82201331	0.71037438
1.62	0.2187098	5.05228341	-3.22757619	2.88379984	0.830491
1.63	0.21888224	4.93459357	-3.24745378	2.94724952	0.94358126
